<!-- Generated by IcoMoon.io -->
<svg version="1.1" xmlns="http://www.w3.org/2000/svg" width="57" height="32" viewBox="0 0 57 32">
<path d="M23.612 0.785c-0.009 0.006-0.127 0.027-0.264 0.044-0.667 0.083-1.357 0.225-1.837 0.382-0.089 0.030-0.222 0.071-0.296 0.092-0.459 0.136-1.479 0.587-1.95 0.862-0.133 0.080-0.258 0.145-0.273 0.145-0.018 0-0.030 0.012-0.030 0.030 0 0.015-0.015 0.030-0.033 0.030-0.036 0-0.578 0.367-0.901 0.61-0.299 0.222-0.847 0.699-1.156 1.007-0.524 0.516-1.188 1.342-1.567 1.953-0.059 0.098-0.121 0.199-0.139 0.222-0.219 0.356-0.646 1.224-0.767 1.57-0.021 0.056-0.059 0.157-0.089 0.222-0.080 0.184-0.255 0.735-0.329 1.037-0.018 0.065-0.041 0.166-0.056 0.222-0.11 0.45-0.13 0.557-0.207 1.081-0.13 0.886-0.142 2.062-0.027 2.904 0.089 0.664 0.222 1.333 0.323 1.644 0.012 0.041 0.039 0.133 0.059 0.207 0.053 0.19 0.166 0.533 0.207 0.637 0.053 0.127 0.077 0.19 0.133 0.341 0.204 0.551 0.714 1.517 1.117 2.116 0.524 0.776 1.363 1.686 2.172 2.347 0.329 0.27 0.836 0.64 1.040 0.759 0.047 0.027 0.231 0.136 0.409 0.243 0.418 0.252 1.022 0.548 1.47 0.72 0.107 0.041 0.219 0.086 0.252 0.101 0.231 0.101 1.084 0.353 1.393 0.415 1.090 0.216 1.733 0.276 2.681 0.255 0.667-0.015 0.862-0.033 1.526-0.127 0.27-0.039 0.385-0.059 0.741-0.13 0.359-0.071 1.532-0.447 1.92-0.616 0.231-0.101 0.88-0.424 1.058-0.527 0.074-0.044 0.193-0.113 0.267-0.154s0.281-0.172 0.465-0.293c0.181-0.119 0.35-0.216 0.37-0.216 0.041 0 1.624 1.57 1.624 1.612 0 0.015-0.053 0.083-0.119 0.154-0.107 0.116-0.119 0.145-0.119 0.284v0.157l3.742 3.742c2.056 2.059 3.825 3.807 3.932 3.887 0.453 0.344 0.839 0.471 1.428 0.474 0.418 0 0.56-0.024 0.868-0.145 0.548-0.216 1.114-0.77 1.304-1.277 0.027-0.074 0.059-0.16 0.074-0.193 0.065-0.169 0.098-0.421 0.095-0.741-0.003-0.326-0.021-0.453-0.119-0.77-0.044-0.148-0.184-0.403-0.317-0.593-0.166-0.228-7.582-7.639-7.713-7.704-0.133-0.065-0.237-0.039-0.4 0.107-0.074 0.062-0.145 0.116-0.16 0.116-0.041 0-1.609-1.588-1.609-1.633 0-0.024 0.074-0.151 0.163-0.284 0.228-0.344 0.524-0.824 0.622-1.016 0.163-0.323 0.193-0.382 0.193-0.415 0-0.015 0.015-0.030 0.030-0.030 0.018 0 0.030-0.021 0.030-0.044s0.012-0.068 0.030-0.098c0.044-0.077 0.222-0.48 0.264-0.599 0.021-0.056 0.050-0.13 0.062-0.163 0.071-0.169 0.311-0.969 0.379-1.259 0.095-0.403 0.142-0.658 0.181-0.933 0.018-0.116 0.047-0.329 0.068-0.474 0.053-0.364 0.050-1.932-0.003-2.385-0.041-0.376-0.136-0.954-0.207-1.274-0.104-0.468-0.332-1.253-0.418-1.437-0.018-0.033-0.062-0.145-0.101-0.252-0.041-0.107-0.092-0.234-0.116-0.281-0.024-0.050-0.068-0.142-0.095-0.207-0.204-0.468-0.504-1.004-0.898-1.615-0.255-0.397-0.735-0.99-1.161-1.437-0.501-0.527-1.487-1.345-2.015-1.671-0.649-0.403-1.191-0.696-1.55-0.836-0.086-0.033-0.193-0.077-0.243-0.101-0.243-0.107-0.607-0.246-0.726-0.281-0.074-0.021-0.166-0.047-0.207-0.059s-0.133-0.039-0.207-0.059c-0.074-0.021-0.166-0.047-0.207-0.059-0.041-0.015-0.213-0.059-0.385-0.098-0.293-0.071-0.415-0.095-0.927-0.169-0.116-0.018-0.284-0.044-0.373-0.062-0.16-0.027-2.35-0.039-2.376-0.012zM25.837 1.514c0.462 0.053 0.726 0.089 0.833 0.119 0.059 0.015 0.139 0.027 0.175 0.027 0.039 0 0.11 0.012 0.16 0.027s0.225 0.065 0.388 0.11c0.347 0.092 0.984 0.296 1.058 0.338 0.030 0.018 0.065 0.030 0.080 0.030s0.13 0.047 0.252 0.104c0.124 0.056 0.234 0.104 0.243 0.104 0.053 0 0.809 0.394 1.049 0.545 0.788 0.504 1.076 0.714 1.511 1.102 0.074 0.065 0.187 0.166 0.252 0.219 0.175 0.148 0.631 0.61 0.797 0.812 0.415 0.489 0.892 1.156 1.093 1.529 0.047 0.089 0.104 0.184 0.121 0.207 0.050 0.062 0.447 0.874 0.507 1.037 0.030 0.074 0.074 0.187 0.104 0.252 0.027 0.065 0.101 0.279 0.163 0.474 0.059 0.196 0.121 0.382 0.133 0.415 0.030 0.074 0.080 0.267 0.104 0.385 0.009 0.047 0.030 0.136 0.041 0.193 0.151 0.619 0.27 1.653 0.27 2.359 0 0.756-0.080 1.449-0.267 2.293-0.012 0.056-0.033 0.151-0.044 0.207s-0.030 0.136-0.044 0.178c-0.012 0.041-0.039 0.133-0.059 0.207-0.080 0.279-0.243 0.756-0.27 0.782-0.015 0.018-0.027 0.047-0.027 0.068s-0.039 0.121-0.086 0.222c-0.044 0.104-0.121 0.273-0.169 0.379-0.116 0.264-0.35 0.711-0.51 0.978-0.13 0.216-0.444 0.681-0.48 0.711-0.012 0.009-0.027 0.036-0.039 0.059-0.033 0.077-0.661 0.824-0.93 1.105-0.773 0.806-1.81 1.585-2.646 1.994-0.379 0.184-0.77 0.367-0.782 0.367-0.009 0-0.101 0.039-0.201 0.083-0.27 0.121-0.323 0.139-0.779 0.273-0.664 0.196-1.117 0.299-1.467 0.338-0.074 0.009-0.225 0.027-0.341 0.044-0.747 0.107-1.399 0.116-2.267 0.033-1.025-0.095-1.97-0.32-2.865-0.679-0.859-0.344-1.876-0.927-2.572-1.479-0.113-0.092-0.213-0.172-0.222-0.181-0.009-0.012-0.116-0.104-0.237-0.21-1.253-1.076-2.207-2.439-2.83-4.030-0.027-0.074-0.062-0.16-0.077-0.193-0.012-0.033-0.039-0.113-0.059-0.178-0.018-0.065-0.044-0.145-0.056-0.178-0.015-0.033-0.053-0.16-0.086-0.281-0.036-0.121-0.077-0.264-0.092-0.314-0.015-0.047-0.041-0.148-0.056-0.222-0.015-0.071-0.044-0.231-0.071-0.353-0.044-0.225-0.074-0.412-0.145-0.904-0.053-0.361-0.053-1.976 0-2.356 0.098-0.708 0.145-0.939 0.344-1.689 0.080-0.311 0.279-0.871 0.388-1.111 0.021-0.050 0.062-0.148 0.092-0.222 0.053-0.13 0.356-0.735 0.486-0.963 0.163-0.29 0.56-0.883 0.818-1.221 0.652-0.856 1.733-1.825 2.723-2.436 0.415-0.255 1.037-0.596 1.093-0.596 0.012 0 0.121-0.047 0.249-0.11 0.21-0.098 0.847-0.338 1.058-0.394 0.050-0.015 0.201-0.059 0.341-0.098 0.314-0.092 0.575-0.154 0.844-0.199 0.116-0.018 0.276-0.044 0.356-0.059 0.219-0.039 0.791-0.092 1.096-0.098 0.439-0.012 1.286 0.009 1.556 0.041zM34.133 19.778l0.785 0.785-0.717 0.711c-0.394 0.391-0.729 0.711-0.744 0.711-0.044 0-1.547-1.508-1.547-1.553 0-0.024 0.062-0.092 0.142-0.154 0.181-0.148 0.898-0.862 1.102-1.102 0.086-0.101 0.166-0.184 0.175-0.184s0.37 0.356 0.803 0.785zM36.234 21.046c0.29 0.287 0.353 0.361 0.329 0.4-0.015 0.030-0.524 0.554-1.132 1.173l-1.105 1.12-0.376-0.373c-0.21-0.204-0.379-0.385-0.379-0.406 0-0.047 2.231-2.273 2.273-2.27 0.021 0.003 0.196 0.163 0.391 0.356zM40.113 24.91c2.353 2.356 2.978 2.996 3.067 3.144 0.059 0.104 0.11 0.204 0.11 0.225s0.009 0.047 0.021 0.059c0.050 0.047 0.095 0.317 0.098 0.569 0 0.409-0.098 0.681-0.373 1.022-0.308 0.388-0.747 0.59-1.277 0.59-0.332 0-0.655-0.101-0.898-0.281-0.056-0.041-1.434-1.404-3.058-3.028l-2.954-2.951 0.344-0.359c1.058-1.099 1.896-1.944 1.929-1.944 0.021 0 1.366 1.33 2.993 2.954z"></path>
<path d="M24.178 2.744c-0.252 0.015-0.8 0.071-0.963 0.104-0.379 0.074-0.495 0.098-0.77 0.166-1.144 0.287-2.279 0.841-3.289 1.609-0.51 0.388-1.413 1.31-1.733 1.775-0.041 0.056-0.098 0.13-0.124 0.163-0.030 0.033-0.053 0.071-0.053 0.086s-0.039 0.077-0.083 0.136c-0.047 0.059-0.11 0.154-0.142 0.21-0.030 0.056-0.062 0.11-0.074 0.119-0.009 0.009-0.041 0.062-0.077 0.119-0.213 0.353-0.441 0.815-0.596 1.2-0.148 0.373-0.184 0.471-0.184 0.507 0 0.024-0.012 0.065-0.030 0.095-0.086 0.154-0.29 1.046-0.382 1.68-0.121 0.83-0.095 1.884 0.074 2.815 0.050 0.273 0.21 0.948 0.246 1.037 0.015 0.033 0.041 0.113 0.059 0.178 0.021 0.065 0.047 0.145 0.062 0.178 0.012 0.033 0.065 0.172 0.119 0.311 0.655 1.719 1.849 3.176 3.57 4.347 0.196 0.133 0.93 0.527 1.17 0.628 0.089 0.039 0.21 0.089 0.267 0.113 0.148 0.062 0.207 0.086 0.326 0.127 0.056 0.021 0.13 0.047 0.163 0.059 0.27 0.113 0.85 0.258 1.526 0.385 0.735 0.139 2.178 0.139 2.963 0 0.199-0.036 0.601-0.116 0.741-0.151 0.056-0.012 0.157-0.036 0.222-0.050 0.119-0.027 0.631-0.193 0.741-0.24 0.033-0.015 0.172-0.071 0.311-0.124 0.311-0.119 1.067-0.504 1.366-0.696 0.258-0.163 0.824-0.581 1.079-0.794 0.975-0.815 1.956-2.136 2.456-3.316 0.027-0.059 0.065-0.154 0.089-0.207 0.080-0.181 0.267-0.723 0.332-0.963s0.083-0.317 0.193-0.865c0.065-0.335 0.145-1.179 0.145-1.544 0-0.539-0.080-1.378-0.178-1.819-0.012-0.065-0.041-0.199-0.062-0.296-0.041-0.21-0.19-0.747-0.255-0.916-0.024-0.068-0.071-0.196-0.104-0.284-0.151-0.415-0.433-1.001-0.649-1.357-0.065-0.104-0.116-0.196-0.116-0.201 0-0.009-0.080-0.133-0.175-0.276-0.536-0.797-1.381-1.689-2.107-2.222-0.45-0.335-0.806-0.56-1.333-0.844-0.347-0.19-1.144-0.521-1.247-0.521-0.030 0-0.059-0.012-0.068-0.027s-0.053-0.036-0.098-0.044c-0.098-0.024-0.181-0.044-0.601-0.151-0.776-0.199-1.754-0.281-2.726-0.234zM25.526 3.496c0.584 0.065 0.862 0.113 1.304 0.225 0.264 0.068 0.773 0.228 0.889 0.276 0.033 0.015 0.139 0.056 0.237 0.095 0.21 0.077 0.812 0.373 1.067 0.521 0.596 0.35 1.467 1.046 1.893 1.511 0.196 0.216 0.557 0.649 0.658 0.794 0.033 0.050 0.107 0.154 0.166 0.237 0.142 0.207 0.376 0.607 0.516 0.889 0.062 0.13 0.124 0.24 0.139 0.246 0.012 0.006 0.021 0.030 0.021 0.053s0.012 0.065 0.027 0.095c0.077 0.145 0.157 0.356 0.314 0.836 0.139 0.421 0.151 0.459 0.19 0.681 0.021 0.107 0.047 0.24 0.062 0.296 0.107 0.421 0.175 1.384 0.142 2.015-0.047 0.892-0.181 1.556-0.489 2.43-0.163 0.465-0.187 0.521-0.433 1.007-0.376 0.744-0.969 1.553-1.603 2.181-0.474 0.471-0.877 0.791-1.499 1.185-0.151 0.095-0.936 0.492-1.087 0.548-0.089 0.036-0.201 0.080-0.281 0.116-0.148 0.059-0.634 0.21-0.921 0.281-0.166 0.044-0.35 0.089-0.406 0.104-0.154 0.041-0.723 0.113-1.227 0.151-0.827 0.068-2.018-0.071-2.862-0.335-0.056-0.018-0.136-0.041-0.178-0.056-0.16-0.047-0.524-0.184-0.643-0.237-0.071-0.030-0.136-0.056-0.145-0.056-0.033 0-0.717-0.35-0.945-0.483-0.705-0.409-1.597-1.167-2.101-1.784-0.471-0.575-0.779-1.028-0.996-1.455-0.056-0.113-0.113-0.21-0.121-0.219-0.036-0.030-0.347-0.791-0.439-1.067-0.121-0.367-0.136-0.424-0.196-0.652-0.027-0.107-0.059-0.24-0.074-0.296s-0.036-0.172-0.047-0.252c-0.009-0.083-0.030-0.222-0.044-0.311-0.116-0.761-0.104-1.846 0.033-2.593 0.015-0.083 0.041-0.234 0.062-0.341 0.050-0.287 0.228-0.919 0.323-1.141 0.012-0.033 0.039-0.107 0.059-0.163 0.056-0.16 0.071-0.199 0.252-0.578 0.593-1.253 1.47-2.311 2.61-3.159 0.738-0.545 1.615-0.984 2.501-1.253 0.655-0.199 0.963-0.261 1.556-0.317 0.196-0.018 0.361-0.039 0.367-0.044 0.027-0.027 1.070-0.012 1.351 0.018z"></path>
<path d="M25.484 5.523c-0.036 0.053-0.062 0.107-0.062 0.116 0 0.012-0.053 0.13-0.116 0.264-0.311 0.658-0.376 0.812-0.364 0.847 0.006 0.021 0.065 0.036 0.151 0.036 0.136 0 0.139-0.003 0.196-0.133l0.053-0.136 0.536 0.018 0.044 0.139c0.041 0.133 0.047 0.142 0.175 0.16 0.175 0.027 0.193-0.012 0.107-0.234-0.039-0.098-0.071-0.199-0.071-0.219s-0.012-0.062-0.030-0.092c-0.015-0.027-0.077-0.199-0.136-0.376-0.157-0.471-0.169-0.489-0.305-0.489-0.101 0-0.124 0.015-0.178 0.101zM25.73 6.047c0.062 0.21 0.044 0.243-0.119 0.228-0.107-0.009-0.116-0.015-0.11-0.092 0.006-0.107 0.101-0.317 0.142-0.317 0.018 0 0.056 0.080 0.086 0.181z"></path>
<path d="M23.348 5.487c-0.121 0.015-0.276 0.036-0.341 0.047-0.116 0.021-0.119 0.024-0.116 0.139 0.003 0.065 0.021 0.252 0.039 0.415 0.036 0.281 0.086 0.741 0.089 0.797 0.003 0.024 0.338 0.009 0.649-0.030 0.148-0.018 0.154-0.024 0.154-0.113 0-0.157-0.030-0.175-0.231-0.151-0.255 0.030-0.302 0.009-0.302-0.133 0-0.116 0-0.116 0.142-0.133 0.261-0.033 0.287-0.047 0.284-0.172-0.003-0.062-0.012-0.121-0.024-0.13-0.009-0.012-0.101-0.006-0.199 0.009-0.196 0.033-0.246 0.015-0.273-0.101-0.030-0.119 0.006-0.148 0.181-0.169 0.284-0.030 0.302-0.039 0.302-0.121 0-0.095-0.050-0.19-0.098-0.187-0.021 0.003-0.136 0.018-0.258 0.033z"></path>
<path d="M27.769 5.754c-0.018 0.039-0.101 0.222-0.187 0.409-0.083 0.187-0.196 0.43-0.249 0.539-0.050 0.11-0.086 0.21-0.077 0.222 0.009 0.015 0.071 0.041 0.136 0.062 0.098 0.030 0.124 0.027 0.169-0.015 0.030-0.027 0.053-0.065 0.053-0.086 0-0.018 0.027-0.086 0.056-0.151 0.107-0.21 0.21-0.45 0.21-0.483 0-0.018 0.012-0.027 0.027-0.018 0.012 0.009 0.033 0.199 0.044 0.424 0.012 0.222 0.033 0.427 0.047 0.456 0.047 0.086 0.326 0.086 0.326 0 0-0.024 0.053-0.116 0.338-0.596l0.080-0.133-0.021 0.462-0.021 0.465 0.145 0.030c0.080 0.018 0.148 0.027 0.154 0.021 0.009-0.006 0.024-0.222 0.039-0.48 0.012-0.258 0.033-0.554 0.041-0.661 0.018-0.219 0.006-0.249-0.119-0.279-0.252-0.059-0.234-0.065-0.335 0.121-0.053 0.095-0.136 0.237-0.184 0.32-0.050 0.080-0.098 0.169-0.11 0.193-0.021 0.047-0.068 0.089-0.104 0.089-0.015 0-0.024-0.071-0.024-0.157 0-0.083-0.009-0.284-0.021-0.444-0.018-0.279-0.021-0.293-0.101-0.335-0.13-0.065-0.276-0.053-0.317 0.024z"></path>
<path d="M21.378 5.828c-0.29 0.083-0.329 0.095-0.533 0.148-0.258 0.065-0.281 0.083-0.281 0.181 0 0.145 0.033 0.166 0.204 0.127 0.086-0.018 0.172-0.033 0.19-0.033 0.033 0 0.062 0.086 0.172 0.489 0.018 0.065 0.044 0.151 0.056 0.193 0.015 0.041 0.041 0.136 0.059 0.213 0.041 0.157 0.059 0.163 0.219 0.098 0.092-0.039 0.107-0.059 0.092-0.113-0.050-0.193-0.080-0.296-0.148-0.524-0.039-0.139-0.077-0.299-0.080-0.356-0.009-0.101-0.003-0.107 0.133-0.151 0.201-0.065 0.219-0.092 0.16-0.219-0.027-0.056-0.059-0.101-0.071-0.101-0.015 0.003-0.089 0.024-0.172 0.047z"></path>
<path d="M24.756 10.353c-0.264 0.062-0.382 0.148-0.554 0.391-0.216 0.305-0.302 0.652-0.302 1.212 0 0.483 0.039 0.711 0.181 1.022 0.113 0.246 0.252 0.409 0.453 0.527 0.119 0.071 0.163 0.080 0.418 0.080 0.243 0 0.302-0.012 0.424-0.074 0.267-0.136 0.462-0.43 0.581-0.877 0.092-0.335 0.092-0.993 0-1.327-0.154-0.578-0.412-0.877-0.824-0.963-0.181-0.039-0.181-0.039-0.376 0.009zM25.23 10.773c0.139 0.089 0.258 0.252 0.311 0.415 0.021 0.062 0.047 0.142 0.062 0.175 0.021 0.059 0.041 0.184 0.077 0.468 0.024 0.193-0.044 0.646-0.127 0.874-0.119 0.317-0.264 0.486-0.459 0.539-0.281 0.077-0.566-0.068-0.696-0.356-0.092-0.199-0.098-0.225-0.145-0.45-0.136-0.681 0.044-1.437 0.394-1.668 0.16-0.104 0.424-0.104 0.584 0.003z"></path>
<path d="M23.111 10.361c-0.074 0.003-0.231 0.024-0.347 0.041l-0.216 0.036v0.258h0.187c0.101 0 0.201 0.012 0.219 0.024 0.030 0.018 0.039 0.35 0.044 1.431l0.009 1.404 0.311 0.018-0.006-1.606c-0.006-1.043-0.021-1.609-0.039-1.612-0.015-0.003-0.089 0-0.163 0.006z"></path>
<path d="M27.067 10.359c-0.065 0.006-0.216 0.027-0.335 0.044l-0.216 0.036 0.018 0.243 0.148 0.009c0.083 0.003 0.178 0.015 0.213 0.021l0.068 0.015 0.006 1.416 0.009 1.413h0.296v-1.6c0-1.401-0.006-1.6-0.044-1.603-0.024 0-0.098 0.003-0.163 0.006z"></path>
<path d="M18.788 15.769c-0.326 0.676-0.311 0.631-0.225 0.687 0.133 0.089 0.184 0.062 0.284-0.139l0.092-0.19 0.19 0.071c0.181 0.065 0.199 0.065 0.302 0.024 0.133-0.056 0.201-0.119 0.258-0.231 0.089-0.178 0.033-0.406-0.127-0.521-0.083-0.056-0.453-0.24-0.492-0.24-0.009 0-0.136 0.243-0.281 0.539zM19.351 15.618c0.136 0.071 0.124 0.276-0.021 0.353-0.053 0.030-0.086 0.030-0.157 0-0.107-0.044-0.113-0.077-0.033-0.255 0.062-0.133 0.107-0.154 0.21-0.098z"></path>
<path d="M29.704 15.739c-0.080 0.033-0.234 0.095-0.341 0.133-0.273 0.107-0.385 0.157-0.385 0.175 0 0.006 0.018 0.059 0.041 0.116l0.044 0.104 0.124-0.044c0.231-0.083 0.234-0.080 0.379 0.305 0.154 0.406 0.237 0.599 0.258 0.599 0.068 0 0.219-0.095 0.219-0.139 0-0.030-0.074-0.24-0.163-0.468s-0.163-0.43-0.163-0.45c0-0.036 0.16-0.127 0.222-0.127 0.083 0 0.11-0.080 0.059-0.175-0.053-0.107-0.092-0.11-0.296-0.027z"></path>
<path d="M20.501 15.988c-0.018 0.047-0.11 0.32-0.207 0.604l-0.172 0.519 0.059 0.050c0.11 0.092 0.264 0.053 0.264-0.065 0-0.030 0.021-0.095 0.047-0.148 0.059-0.116 0.068-0.101 0.145 0.19 0.056 0.21 0.071 0.225 0.305 0.296 0.089 0.030 0.086-0.030-0.009-0.29-0.089-0.243-0.089-0.255-0.021-0.258 0.086-0.003 0.225-0.098 0.296-0.204 0.077-0.116 0.086-0.317 0.021-0.444-0.047-0.095-0.267-0.237-0.359-0.237-0.033 0-0.071-0.012-0.086-0.027-0.018-0.015-0.080-0.039-0.139-0.047-0.104-0.021-0.113-0.015-0.145 0.062zM20.972 16.323c0.133 0.163-0.124 0.391-0.302 0.261-0.050-0.036-0.050-0.044 0-0.169 0.074-0.196 0.092-0.21 0.184-0.172 0.044 0.021 0.098 0.056 0.119 0.080z"></path>
<path d="M27.597 16.382c-0.27 0.142-0.382 0.323-0.379 0.61 0 0.385 0.219 0.643 0.581 0.684 0.302 0.036 0.551-0.098 0.699-0.373 0.086-0.166 0.083-0.207-0.015-0.207-0.145 0-0.213 0.033-0.27 0.13-0.071 0.119-0.249 0.207-0.367 0.184-0.193-0.039-0.35-0.231-0.35-0.43 0-0.119 0.139-0.314 0.249-0.353 0.133-0.050 0.196-0.044 0.326 0.027 0.116 0.059 0.252 0.056 0.335-0.009 0.059-0.047-0.044-0.172-0.213-0.249-0.178-0.086-0.453-0.092-0.596-0.015z"></path>
<path d="M22.353 16.516c-0.273 0.127-0.465 0.453-0.415 0.702 0.095 0.474 0.572 0.732 0.978 0.527 0.187-0.092 0.293-0.219 0.359-0.424 0.074-0.231 0.027-0.439-0.145-0.631-0.213-0.243-0.495-0.305-0.776-0.175zM22.773 16.788c0.151 0.071 0.219 0.187 0.219 0.361 0 0.121-0.015 0.163-0.083 0.237-0.047 0.050-0.139 0.107-0.21 0.127-0.113 0.033-0.136 0.030-0.234-0.024-0.157-0.086-0.249-0.279-0.213-0.439 0.039-0.169 0.187-0.287 0.379-0.308 0.024 0 0.086 0.018 0.142 0.044z"></path>
<path d="M26.089 16.61c-0.033 0.003-0.163 0.018-0.293 0.027l-0.234 0.021 0.021 0.255c0.009 0.142 0.030 0.427 0.044 0.634 0.015 0.204 0.036 0.391 0.047 0.412 0.024 0.033 0.276 0.024 0.625-0.024l0.133-0.018-0.018-0.243-0.228 0.009-0.228 0.012-0.018-0.104c-0.012-0.059-0.012-0.119-0.003-0.133s0.11-0.036 0.225-0.047l0.207-0.021v-0.101c0-0.056-0.018-0.11-0.036-0.124-0.021-0.012-0.127-0.018-0.237-0.012l-0.201 0.009v-0.273h0.172c0.216 0 0.281-0.041 0.267-0.178-0.009-0.092-0.018-0.104-0.098-0.107-0.047-0.003-0.116 0-0.148 0.006z"></path>
<path d="M24.489 16.687c-0.006 0.021-0.015 0.219-0.021 0.439-0.015 0.489-0.044 0.575-0.213 0.587-0.062 0.006-0.127-0.003-0.145-0.021-0.062-0.062-0.080-0.033-0.080 0.127 0 0.157 0 0.157 0.098 0.175 0.199 0.033 0.376-0.012 0.48-0.116 0.116-0.113 0.121-0.151 0.148-0.759 0.018-0.385 0.018-0.406-0.041-0.436-0.080-0.044-0.21-0.041-0.225 0.003z"></path>
<path d="M6.193 1.333c-0.356 0.095-0.901 0.382-1.034 0.545-0.062 0.074-0.086 0.059-0.16-0.095-0.065-0.139-0.145-0.184-0.163-0.089-0.009 0.047 0.053 0.207 0.116 0.293 0.030 0.039 0.021 0.065-0.044 0.133-0.044 0.047-0.148 0.19-0.231 0.314-0.083 0.127-0.16 0.231-0.175 0.231s-0.098-0.036-0.19-0.080c-0.124-0.062-0.172-0.071-0.199-0.044-0.047 0.047 0.003 0.101 0.19 0.184 0.086 0.039 0.16 0.074 0.166 0.074 0.003 0.003-0.018 0.077-0.050 0.166-0.030 0.089-0.065 0.219-0.077 0.29l-0.021 0.124-0.151-0.003c-0.243-0.009-0.258-0.006-0.258 0.059s0.041 0.074 0.255 0.062l0.124-0.006 0.015 0.379c0.012 0.207 0.027 0.421 0.036 0.468 0.018 0.080 0.006 0.098-0.116 0.184-0.154 0.11-0.302 0.32-0.347 0.498-0.074 0.281-0.053 0.264-0.279 0.305-0.121 0.024-0.353 0.036-0.548 0.030-0.4-0.012-0.495-0.047-0.51-0.207-0.006-0.074-0.024-0.098-0.068-0.098-0.104 0-0.095 0.166 0.012 0.29 0.154 0.172 0.507 0.213 1.055 0.124 0.148-0.024 0.276-0.044 0.29-0.044 0.012 0 0.021 0.039 0.021 0.083s0.047 0.178 0.104 0.296c0.127 0.267 0.344 0.486 0.599 0.604 0.104 0.050 0.187 0.092 0.187 0.098 0 0.003-0.033 0.083-0.074 0.175-0.166 0.379-0.246 0.889-0.169 1.084 0.047 0.121 0.166 0.213 0.261 0.201 0.119-0.012 0.121-0.124 0.003-0.136-0.228-0.027-0.219-0.45 0.027-1.105l0.074-0.196 0.201-0.015c0.246-0.018 0.436-0.104 0.619-0.279l0.133-0.127 0.213 0.071c0.119 0.041 0.287 0.083 0.376 0.098l0.157 0.021-0.012 0.204c-0.009 0.181-0.003 0.201 0.044 0.19 0.059-0.012 0.095-0.101 0.098-0.27 0.003-0.107 0.006-0.11 0.116-0.11 0.059 0 0.196-0.009 0.302-0.018l0.196-0.018 0.056 0.187c0.039 0.124 0.074 0.19 0.104 0.19 0.047 0 0.050-0.041 0.015-0.284l-0.021-0.136 0.187-0.065c0.104-0.039 0.261-0.107 0.35-0.154s0.172-0.086 0.181-0.086c0.012 0 0.071 0.039 0.133 0.089 0.119 0.095 0.222 0.116 0.222 0.047 0-0.041-0.077-0.113-0.193-0.181-0.041-0.027-0.003-0.074 0.258-0.341 0.234-0.237 0.335-0.367 0.43-0.548 0.32-0.613 0.385-1.324 0.178-1.976-0.11-0.347-0.323-0.676-0.643-1.004-0.326-0.332-0.59-0.498-0.993-0.628-0.231-0.074-0.326-0.086-0.711-0.098-0.382-0.012-0.477-0.003-0.667 0.047zM7.307 1.473c0.121 0.027 0.347 0.11 0.495 0.184l0.273 0.136-0.006 0.133c-0.012 0.181-0.101 0.806-0.124 0.85-0.009 0.018-0.231 0.204-0.492 0.415s-0.601 0.489-0.759 0.616c-0.154 0.13-0.421 0.35-0.587 0.489-0.169 0.139-0.453 0.376-0.637 0.53-0.181 0.154-0.373 0.311-0.427 0.353l-0.101 0.077-0.056-0.074c-0.107-0.139-0.323-0.613-0.385-0.844-0.077-0.296-0.083-0.767-0.015-1.064 0.044-0.19 0.281-0.723 0.379-0.856 0.041-0.053 0.044-0.050 0.124 0.024 0.095 0.086 0.237 0.121 0.385 0.095 0.113-0.021 0.273-0.178 0.302-0.299 0.027-0.107-0.009-0.264-0.080-0.353-0.033-0.041-0.050-0.092-0.039-0.11 0.021-0.033 0.344-0.187 0.501-0.24 0.364-0.119 0.871-0.145 1.247-0.062zM5.479 1.973c0.089 0.113 0.080 0.237-0.024 0.341-0.124 0.121-0.323 0.107-0.412-0.033-0.030-0.050-0.015-0.077 0.13-0.222 0.092-0.089 0.184-0.163 0.204-0.163 0.024 0 0.068 0.036 0.101 0.077zM8.436 2.074c0.193 0.187 0.43 0.498 0.48 0.631l0.033 0.080-0.43-0.003c-0.308 0-0.43-0.012-0.43-0.036 0-0.021 0.027-0.21 0.059-0.421 0.033-0.213 0.059-0.394 0.059-0.409 0-0.050 0.056-0.012 0.228 0.157zM9.013 2.93c0.012 0.012 0.053 0.127 0.086 0.255 0.095 0.344 0.095 0.886 0 1.215-0.083 0.29-0.296 0.705-0.462 0.895-0.124 0.139-0.124 0.139-0.16 0.074-0.089-0.166-0.391-0.237-0.563-0.136-0.044 0.027-0.11 0.092-0.148 0.148-0.086 0.124-0.074 0.314 0.024 0.453l0.065 0.092-0.068 0.027c-0.993 0.376-1.804 0.24-2.593-0.433-0.086-0.074-0.157-0.145-0.157-0.16 0-0.021 0.095-0.101 0.622-0.53 0.533-0.436 1.855-1.529 2.074-1.721 0.107-0.092 0.216-0.181 0.246-0.196 0.059-0.033 0.999-0.015 1.034 0.018zM4.513 4.83c0.154 0.356 0.699 0.966 1.007 1.126 0.077 0.041 0.139 0.083 0.139 0.092 0 0.012-0.053 0.068-0.116 0.124-0.119 0.107-0.356 0.199-0.513 0.199-0.095 0-0.098-0.003-0.039-0.116 0.024-0.047 0.033-0.092 0.024-0.104-0.041-0.041-0.092-0.012-0.145 0.086-0.050 0.095-0.065 0.104-0.145 0.086-0.311-0.065-0.705-0.516-0.732-0.839-0.009-0.092 0-0.104 0.119-0.145 0.083-0.033 0.124-0.062 0.116-0.095-0.009-0.044-0.021-0.044-0.169-0.024-0.065 0.009-0.074 0-0.065-0.065 0.024-0.157 0.136-0.361 0.27-0.477l0.136-0.121 0.027 0.071c0.015 0.039 0.053 0.127 0.086 0.201zM8.311 5.407c0.041 0.039 0.074 0.095 0.074 0.124-0.003 0.050-0.317 0.305-0.379 0.305-0.053 0-0.154-0.151-0.154-0.228 0-0.086 0.050-0.187 0.116-0.237 0.083-0.065 0.264-0.047 0.344 0.036z"></path>
<path d="M6.794 1.926c-0.258 0.154-0.246 0.587 0.018 0.726 0.116 0.059 0.314 0.056 0.418-0.006 0.127-0.074 0.219-0.258 0.199-0.403-0.041-0.299-0.382-0.471-0.634-0.317zM7.203 2.101c0.184 0.184 0.059 0.447-0.213 0.447-0.207 0-0.32-0.305-0.169-0.465 0.095-0.104 0.27-0.095 0.382 0.018z"></path>
<path d="M5.040 3.487c-0.225 0.119-0.296 0.397-0.154 0.599 0.151 0.21 0.456 0.243 0.631 0.068 0.169-0.166 0.154-0.477-0.030-0.64-0.092-0.080-0.32-0.095-0.447-0.027zM5.404 3.647c0.11 0.086 0.11 0.293 0 0.397-0.104 0.098-0.249 0.098-0.359 0.003-0.181-0.157-0.062-0.462 0.181-0.462 0.056 0 0.133 0.027 0.178 0.062z"></path>
<path d="M8.119 3.487c-0.16 0.083-0.246 0.231-0.225 0.388 0.033 0.246 0.199 0.391 0.447 0.391 0.279 0 0.465-0.308 0.347-0.572-0.033-0.068-0.086-0.151-0.119-0.181-0.092-0.080-0.32-0.095-0.45-0.027zM8.486 3.647c0.11 0.086 0.11 0.293 0 0.397-0.163 0.151-0.412 0.056-0.447-0.169-0.015-0.095-0.003-0.121 0.074-0.201 0.11-0.11 0.255-0.119 0.373-0.027z"></path>
<path d="M6.293 4.978c-0.036 0.015-0.101 0.074-0.148 0.133-0.207 0.273-0.009 0.667 0.338 0.667 0.379 0 0.545-0.439 0.267-0.717-0.101-0.101-0.127-0.113-0.252-0.11-0.080 0-0.172 0.012-0.204 0.027zM6.646 5.156c0.098 0.077 0.121 0.184 0.068 0.308-0.050 0.119-0.193 0.204-0.296 0.178-0.207-0.050-0.284-0.338-0.127-0.474 0.104-0.089 0.252-0.092 0.356-0.012z"></path>
<path d="M49.496 1.502c0.039 0.364 0.053 0.332-0.178 0.406-0.113 0.036-0.249 0.089-0.302 0.116s-0.101 0.050-0.11 0.050c-0.009 0-0.071-0.080-0.136-0.178-0.121-0.178-0.237-0.24-0.237-0.127 0 0.059 0.095 0.228 0.181 0.323 0.056 0.059 0.056 0.062-0.142 0.193-0.11 0.071-0.299 0.228-0.424 0.347l-0.222 0.216-0.148-0.044c-0.344-0.101-0.61-0.086-0.883 0.056-0.178 0.092-0.187 0.086-0.465-0.213-0.249-0.267-0.495-0.631-0.521-0.77-0.024-0.133 0.006-0.237 0.077-0.261 0.062-0.021 0.080-0.116 0.027-0.148-0.059-0.039-0.175 0.018-0.222 0.11-0.059 0.116-0.062 0.332-0.003 0.468 0.071 0.166 0.302 0.465 0.575 0.744l0.249 0.258-0.104 0.113c-0.116 0.124-0.237 0.359-0.308 0.587-0.056 0.184-0.062 0.613-0.009 0.767 0.021 0.062 0.033 0.121 0.024 0.127-0.009 0.009-0.116 0.041-0.237 0.074-0.587 0.148-1.022 0.385-1.138 0.619-0.083 0.16-0.086 0.299-0.015 0.364 0.116 0.104 0.243 0.015 0.142-0.095-0.044-0.050-0.047-0.065-0.009-0.16 0.053-0.121 0.169-0.216 0.45-0.356 0.193-0.095 0.581-0.228 0.803-0.273 0.083-0.015 0.101-0.006 0.16 0.086 0.142 0.231 0.516 0.453 0.815 0.483 0.148 0.015 0.166 0.027 0.181 0.095 0.030 0.136 0.136 0.427 0.225 0.601 0.044 0.095 0.083 0.178 0.083 0.187 0 0.006-0.065 0.047-0.142 0.086-0.184 0.092-0.234 0.151-0.184 0.207 0.039 0.050 0.13 0.027 0.267-0.071 0.047-0.033 0.104-0.059 0.127-0.059s0.113 0.083 0.193 0.184c0.083 0.104 0.181 0.219 0.222 0.258l0.077 0.068-0.133 0.169c-0.13 0.166-0.169 0.299-0.089 0.299 0.044 0 0.136-0.077 0.136-0.116 0-0.009 0.047-0.068 0.107-0.13l0.107-0.11 0.184 0.133c0.104 0.071 0.29 0.181 0.415 0.24l0.231 0.11-0.021 0.13c-0.030 0.193 0.006 0.311 0.083 0.299 0.059-0.009 0.065-0.030 0.074-0.199 0.009-0.178 0.012-0.187 0.074-0.169 0.477 0.133 1.141 0.145 1.561 0.033 0.868-0.234 1.561-0.788 1.929-1.541 0.21-0.436 0.299-0.797 0.317-1.298 0.012-0.35 0.003-0.45-0.053-0.696-0.255-1.099-1.034-1.917-2.13-2.231-0.104-0.030-0.196-0.059-0.201-0.068-0.009-0.006 0.027-0.089 0.077-0.184 0.050-0.098 0.080-0.184 0.065-0.199-0.059-0.059-0.139 0-0.225 0.172l-0.089 0.178-0.48 0.003c-0.462 0.003-0.48 0.003-0.495-0.059-0.009-0.036-0.018-0.089-0.018-0.121s-0.015-0.11-0.033-0.172c-0.021-0.083-0.044-0.11-0.092-0.11-0.059 0-0.062 0.009-0.039 0.199zM50.27 2.098c-0.003 0.19 0.062 0.329 0.196 0.43 0.083 0.062 0.326 0.101 0.45 0.068 0.119-0.030 0.24-0.154 0.284-0.29 0.021-0.071 0.050-0.139 0.062-0.154 0.027-0.030 0.311 0.113 0.56 0.276 0.655 0.433 1.111 1.188 1.2 1.988l0.018 0.163-0.127 0.077c-0.071 0.041-0.305 0.163-0.521 0.276-0.433 0.219-0.412 0.216-0.761 0.107-0.184-0.059-1.594-0.421-3.022-0.776-0.456-0.113-0.88-0.219-0.939-0.234-0.062-0.015-0.113-0.044-0.113-0.065s0.047-0.142 0.104-0.273c0.45-1.034 1.236-1.618 2.326-1.73 0.139-0.012 0.261-0.027 0.27-0.030 0.009 0 0.015 0.074 0.015 0.169zM50.963 2.018c0.124 0.039 0.142 0.077 0.089 0.216-0.050 0.136-0.136 0.196-0.279 0.196-0.228 0-0.379-0.187-0.326-0.4 0.021-0.080 0.021-0.083 0.21-0.065 0.104 0.012 0.24 0.036 0.305 0.053zM47.742 2.96l0.086 0.033-0.062 0.098c-0.329 0.498-0.557 1.399-0.486 1.917l0.027 0.207h-0.092c-0.19 0-0.376-0.092-0.563-0.279l-0.178-0.178 0.119-0.018c0.095-0.012 0.121-0.030 0.127-0.083 0.009-0.059 0-0.065-0.151-0.065-0.154 0-0.163-0.003-0.201-0.098-0.059-0.139-0.050-0.59 0.015-0.785 0.059-0.178 0.264-0.495 0.335-0.521 0.027-0.012 0.092 0.012 0.157 0.056 0.059 0.041 0.13 0.074 0.16 0.074 0.083 0 0.047-0.127-0.047-0.172-0.101-0.047-0.104-0.080-0.015-0.127 0.207-0.116 0.566-0.142 0.77-0.059zM48.127 4.284c0.281 0.071 1.182 0.299 2.006 0.507s1.57 0.397 1.659 0.421l0.163 0.047 0.273 0.4c0.441 0.643 0.4 0.563 0.341 0.658-0.098 0.154-0.421 0.495-0.593 0.625-0.554 0.421-1.052 0.584-1.775 0.584-0.314 0-0.341-0.003-0.317-0.053 0.041-0.092 0.047-0.332 0.012-0.418-0.068-0.172-0.279-0.299-0.483-0.299-0.172 0-0.436 0.219-0.436 0.364 0 0.127-0.124 0.074-0.474-0.204-0.702-0.554-1.040-1.262-1.040-2.19 0-0.199 0.009-0.418 0.021-0.486 0.018-0.104 0.030-0.121 0.077-0.104 0.033 0.009 0.287 0.077 0.566 0.148zM53.037 4.93c0 0.267-0.113 0.708-0.255 1.001-0.030 0.062-0.062 0.113-0.077 0.113s-0.089-0.089-0.166-0.196c-0.077-0.107-0.204-0.281-0.281-0.388-0.080-0.107-0.13-0.207-0.119-0.219 0.033-0.033 0.844-0.468 0.877-0.471 0.012 0 0.021 0.071 0.021 0.16zM49.656 7.019c0.080 0.074 0.092 0.107 0.092 0.231 0 0.104-0.015 0.163-0.050 0.196-0.047 0.041-0.074 0.039-0.305-0.036-0.243-0.077-0.252-0.083-0.261-0.175-0.009-0.077 0.012-0.119 0.092-0.199 0.139-0.139 0.296-0.145 0.433-0.018z"></path>
<path d="M48.919 2.806c-0.184 0.077-0.326 0.29-0.326 0.486 0 0.219 0.163 0.421 0.379 0.468 0.213 0.044 0.373-0.024 0.51-0.21 0.225-0.308 0.021-0.732-0.364-0.753-0.086-0.006-0.175-0.003-0.199 0.009zM49.283 3.025c0.095 0.071 0.151 0.258 0.113 0.361-0.089 0.231-0.495 0.273-0.593 0.059-0.041-0.089-0.041-0.261-0.003-0.335 0.077-0.145 0.35-0.193 0.483-0.086z"></path>
<path d="M51.573 3.476c-0.219 0.124-0.296 0.421-0.169 0.664 0.172 0.344 0.705 0.323 0.865-0.033 0.068-0.151 0.071-0.249 0.009-0.406-0.11-0.27-0.441-0.376-0.705-0.225zM51.973 3.606c0.086 0.050 0.175 0.199 0.175 0.29 0 0.027-0.021 0.095-0.044 0.148-0.119 0.243-0.489 0.204-0.578-0.059-0.039-0.119-0.018-0.207 0.071-0.308 0.116-0.127 0.24-0.151 0.376-0.071z"></path>
<path d="M48.394 5.028c-0.039 0.006-0.127 0.068-0.204 0.136-0.127 0.116-0.136 0.136-0.151 0.305-0.015 0.154-0.006 0.201 0.053 0.305 0.172 0.311 0.619 0.317 0.827 0.012 0.101-0.148 0.104-0.397 0.006-0.536-0.11-0.151-0.361-0.255-0.53-0.222zM48.676 5.244c0.207 0.127 0.207 0.424 0 0.548-0.121 0.071-0.302 0.044-0.406-0.056-0.107-0.11-0.11-0.305-0.003-0.418 0.133-0.145 0.258-0.166 0.409-0.074z"></path>
<path d="M50.993 5.784c-0.199 0.136-0.29 0.356-0.237 0.56 0.059 0.225 0.237 0.359 0.474 0.361 0.326 0.006 0.572-0.32 0.477-0.634-0.089-0.293-0.477-0.447-0.714-0.287zM51.437 5.982c0.154 0.145 0.145 0.385-0.018 0.492-0.11 0.071-0.326 0.059-0.412-0.027-0.139-0.139-0.133-0.32 0.015-0.465 0.119-0.119 0.29-0.119 0.415 0z"></path>
<path d="M54.385 11.277c-0.199 0.104-0.361 0.338-0.548 0.791-0.124 0.302-0.101 0.287-0.4 0.228-0.311-0.062-0.69 0.024-0.96 0.216l-0.142 0.104-0.113-0.151c-0.281-0.379-0.693-0.702-0.901-0.702-0.199 0-0.335 0.119-0.258 0.222 0.036 0.050 0.041 0.050 0.095-0.006 0.092-0.098 0.157-0.104 0.302-0.036 0.157 0.077 0.48 0.373 0.658 0.604l0.124 0.16-0.083 0.169c-0.098 0.201-0.124 0.45-0.074 0.681l0.036 0.16-0.252 0.255c-0.139 0.139-0.255 0.264-0.255 0.281 0 0.050-0.065 0.027-0.169-0.062-0.053-0.050-0.127-0.089-0.157-0.089-0.104 0-0.065 0.104 0.077 0.201 0.074 0.053 0.13 0.107 0.124 0.119s-0.068 0.136-0.136 0.276l-0.124 0.258-0.11-0.039c-0.193-0.065-0.29-0.068-0.29-0.003 0 0.041 0.039 0.065 0.163 0.098 0.089 0.024 0.172 0.050 0.184 0.062s0.009 0.068-0.006 0.124c-0.018 0.056-0.039 0.234-0.050 0.394-0.015 0.231-0.027 0.296-0.065 0.308-0.169 0.050-0.27 0.113-0.27 0.163 0 0.065 0.107 0.071 0.19 0.009 0.098-0.074 0.166-0.056 0.166 0.041 0 0.124 0.133 0.563 0.24 0.788 0.287 0.607 0.924 1.114 1.641 1.307 0.37 0.098 0.978 0.071 1.422-0.068 0.628-0.193 1.212-0.723 1.499-1.36 0.163-0.361 0.213-0.652 0.196-1.15l-0.015-0.439 0.139 0.018c0.166 0.021 0.24-0.015 0.184-0.083-0.030-0.033-0.092-0.047-0.21-0.047h-0.172l-0.050-0.157c-0.030-0.083-0.104-0.252-0.166-0.37l-0.113-0.213 0.16-0.11c0.101-0.065 0.163-0.127 0.163-0.16 0-0.083-0.056-0.068-0.231 0.050-0.086 0.056-0.166 0.101-0.178 0.095s-0.107-0.098-0.21-0.207l-0.19-0.201 0.095-0.151c0.053-0.086 0.089-0.172 0.080-0.193-0.033-0.083-0.11-0.039-0.19 0.107-0.044 0.080-0.089 0.148-0.098 0.148-0.012 0-0.095-0.044-0.187-0.101-0.145-0.086-0.436-0.219-0.584-0.264-0.033-0.012-0.056-0.065-0.068-0.178-0.030-0.231-0.163-0.489-0.323-0.631l-0.133-0.119 0.095-0.255c0.219-0.581 0.53-0.921 0.693-0.759 0.030 0.027 0.044 0.027 0.080-0.009 0.039-0.039 0.039-0.050-0.003-0.11-0.053-0.080-0.193-0.086-0.323-0.018zM53.579 12.474c0.074 0.036 0.080 0.050 0.074 0.19-0.006 0.119 0 0.151 0.036 0.151 0.027 0 0.056-0.044 0.071-0.113 0.015-0.059 0.039-0.11 0.050-0.11s0.074 0.059 0.139 0.136c0.124 0.139 0.213 0.347 0.213 0.492 0 0.077-0.006 0.083-0.080 0.062-0.047-0.015-0.243-0.021-0.439-0.021-0.436 0.006-0.782 0.080-1.132 0.249-0.133 0.065-0.249 0.119-0.258 0.119-0.006 0-0.027-0.065-0.044-0.148-0.039-0.175 0-0.409 0.083-0.545l0.059-0.089 0.036 0.077c0.018 0.044 0.053 0.086 0.077 0.095 0.068 0.027 0.080-0.071 0.024-0.178-0.044-0.080-0.047-0.107-0.015-0.145 0.059-0.074 0.231-0.169 0.409-0.225 0.193-0.065 0.557-0.062 0.696 0.003zM54.258 13.479c0.249 0.065 0.64 0.246 0.776 0.359 0.234 0.196 0.385 0.353 0.504 0.516 0.121 0.172 0.299 0.492 0.279 0.504-0.006 0.003-0.068 0.024-0.142 0.047-0.113 0.039-0.145 0.065-0.201 0.181-0.062 0.124-0.065 0.151-0.036 0.273 0.021 0.077 0.071 0.169 0.121 0.216 0.074 0.068 0.119 0.086 0.279 0.095 0.178 0.012 0.19 0.018 0.178 0.077-0.006 0.033-0.021 0.157-0.030 0.276-0.059 0.699-0.439 1.319-1.052 1.716-0.252 0.163-0.21 0.178-0.77-0.281-0.252-0.207-0.261-0.219-0.281-0.415-0.024-0.222-0.059-0.444-0.341-2.145-0.13-0.794-0.231-1.461-0.219-1.479 0.030-0.050 0.664-0.006 0.936 0.062zM53.481 15.244c0.151 0.913 0.287 1.742 0.305 1.843l0.033 0.181-0.196 0.293c-0.107 0.16-0.222 0.347-0.258 0.415-0.077 0.151-0.095 0.154-0.424 0.050-0.699-0.222-1.156-0.622-1.473-1.298-0.142-0.299-0.142-0.305-0.006-0.329 0.216-0.036 0.359-0.204 0.359-0.421 0-0.231-0.178-0.394-0.43-0.394h-0.136l0.021-0.113c0.119-0.664 0.382-1.153 0.8-1.499 0.231-0.193 0.593-0.385 0.886-0.48l0.207-0.065 0.021 0.077c0.012 0.044 0.142 0.827 0.29 1.739zM55.95 15.224c0.030 0.121 0.047 0.237 0.039 0.261-0.027 0.071-0.264 0.053-0.335-0.027-0.086-0.092-0.098-0.151-0.065-0.27 0.033-0.113 0.145-0.199 0.249-0.187 0.047 0.006 0.071 0.050 0.113 0.222zM51.6 15.807c0.107 0.104 0.101 0.261-0.015 0.373-0.113 0.116-0.267 0.113-0.299-0.003-0.027-0.098-0.033-0.4-0.006-0.424 0.009-0.012 0.071-0.021 0.133-0.021 0.083 0 0.136 0.021 0.187 0.074zM54.219 17.65c0.181 0.145 0.326 0.27 0.329 0.279 0 0.036-0.246 0.119-0.468 0.163-0.287 0.053-0.628 0.056-0.628 0.003 0-0.024 0.086-0.178 0.193-0.35 0.107-0.169 0.193-0.317 0.193-0.332 0-0.053 0.077-0.003 0.382 0.237z"></path>
<path d="M54.175 14.015c-0.329 0.163-0.276 0.637 0.080 0.747 0.456 0.136 0.747-0.495 0.344-0.744-0.127-0.077-0.27-0.080-0.424-0.003zM54.587 14.196c0.13 0.16 0 0.441-0.21 0.441-0.199 0-0.338-0.24-0.24-0.418 0.077-0.148 0.338-0.16 0.45-0.024z"></path>
<path d="M54.619 16.344c-0.13 0.065-0.231 0.252-0.21 0.4 0.047 0.353 0.468 0.495 0.711 0.24 0.166-0.175 0.157-0.409-0.024-0.59-0.083-0.083-0.119-0.098-0.24-0.098-0.080 0-0.187 0.021-0.237 0.047zM55.031 16.539c0.071 0.074 0.083 0.107 0.068 0.184-0.044 0.219-0.32 0.32-0.468 0.172-0.086-0.086-0.092-0.27-0.009-0.361 0.127-0.142 0.276-0.142 0.409 0.006z"></path>
<path d="M52.222 14.335c-0.172 0.107-0.237 0.255-0.187 0.441 0.053 0.213 0.178 0.308 0.409 0.311 0.308 0 0.495-0.29 0.373-0.584-0.086-0.201-0.397-0.29-0.596-0.169zM52.563 14.444c0.24 0.124 0.175 0.465-0.095 0.51-0.095 0.015-0.121 0.003-0.201-0.074-0.145-0.148-0.116-0.376 0.062-0.447 0.101-0.041 0.136-0.039 0.234 0.012z"></path>
<path d="M52.607 16.676c-0.175 0.11-0.243 0.267-0.19 0.459 0.101 0.376 0.616 0.418 0.773 0.059 0.062-0.142 0.056-0.293-0.021-0.403-0.113-0.163-0.394-0.219-0.563-0.116zM52.913 16.773c0.196 0.068 0.246 0.296 0.098 0.444-0.148 0.145-0.35 0.098-0.436-0.107-0.056-0.136-0.006-0.273 0.119-0.329 0.113-0.047 0.107-0.047 0.219-0.009z"></path>
<path d="M1.881 11.336c-0.154 0.024-0.409 0.104-0.533 0.166-0.323 0.166-0.631 0.501-0.77 0.841-0.077 0.187-0.086 0.237-0.086 0.566l-0.003 0.364h-0.11c-0.116 0-0.151 0.039-0.065 0.071 0.027 0.009 0.086 0.018 0.133 0.018 0.062 0 0.086 0.015 0.086 0.050 0 0.030 0.039 0.136 0.086 0.237l0.089 0.184-0.077 0.062c-0.041 0.033-0.089 0.059-0.101 0.059-0.015 0-0.027 0.021-0.027 0.044 0 0.062 0.036 0.056 0.151-0.024l0.104-0.068 0.127 0.142 0.13 0.145-0.065 0.116c-0.036 0.065-0.050 0.121-0.036 0.13 0.024 0.015 0.056-0.021 0.169-0.184 0.003-0.006 0.083 0.039 0.178 0.098 0.098 0.056 0.219 0.119 0.273 0.136 0.080 0.027 0.095 0.044 0.095 0.13 0 0.133 0.068 0.287 0.181 0.397l0.092 0.095-0.050 0.139c-0.065 0.178-0.207 0.415-0.29 0.483-0.036 0.033-0.098 0.053-0.139 0.047-0.041-0.003-0.080 0.006-0.089 0.021-0.024 0.044 0.074 0.086 0.154 0.068 0.136-0.036 0.225-0.136 0.367-0.424 0.121-0.246 0.148-0.281 0.201-0.267 0.255 0.071 0.533 0.036 0.72-0.092l0.11-0.074 0.044 0.068c0.024 0.039 0.133 0.16 0.243 0.27 0.204 0.204 0.364 0.276 0.468 0.21 0.065-0.041 0.077-0.127 0.021-0.127-0.027 0-0.047 0.012-0.047 0.030 0 0.015-0.033 0.030-0.071 0.030-0.098 0-0.299-0.157-0.468-0.367l-0.136-0.172 0.062-0.107c0.062-0.107 0.089-0.406 0.047-0.51-0.015-0.030 0.041-0.101 0.169-0.219l0.187-0.172 0.080 0.062c0.044 0.033 0.092 0.062 0.104 0.062 0.056 0 0.024-0.086-0.050-0.142l-0.080-0.056 0.086-0.178c0.074-0.154 0.095-0.175 0.145-0.154 0.086 0.033 0.222 0.033 0.222-0.003 0-0.015-0.056-0.041-0.121-0.059-0.121-0.033-0.121-0.036-0.107-0.142 0.009-0.059 0.027-0.181 0.039-0.267 0.018-0.142 0.030-0.16 0.119-0.199 0.113-0.047 0.142-0.121 0.036-0.092-0.142 0.044-0.148 0.039-0.19-0.157-0.050-0.24-0.178-0.51-0.335-0.705-0.163-0.207-0.498-0.439-0.741-0.516-0.196-0.059-0.56-0.092-0.729-0.068zM2.252 11.431c0 0.012-0.065 0.124-0.142 0.249l-0.142 0.225-0.204-0.178c-0.116-0.095-0.21-0.187-0.216-0.201-0.006-0.012 0.074-0.044 0.178-0.068 0.201-0.047 0.527-0.065 0.527-0.027zM2.773 11.588c0.317 0.151 0.587 0.43 0.72 0.747l0.089 0.213-0.119 0.041c-0.287 0.095-0.243 0.507 0.053 0.507 0.116 0 0.121 0.030 0.050 0.27-0.13 0.436-0.4 0.761-0.788 0.954-0.124 0.062-0.273 0.121-0.329 0.13l-0.104 0.015-0.021-0.157c-0.018-0.154-0.166-1.215-0.273-1.97l-0.050-0.359 0.136-0.204c0.074-0.113 0.151-0.234 0.169-0.273 0.047-0.089 0.136-0.071 0.465 0.086zM1.695 11.781c0.127 0.104 0.237 0.222 0.243 0.258 0.009 0.036 0.030 0.193 0.047 0.347 0.047 0.388 0.264 1.923 0.284 2.021l0.018 0.083h-0.181c-0.486 0-0.921-0.21-1.206-0.578-0.101-0.133-0.219-0.332-0.219-0.367 0-0.015 0.039-0.041 0.086-0.062 0.258-0.107 0.178-0.504-0.104-0.504-0.098 0-0.101-0.003-0.101-0.113 0-0.261 0.163-0.679 0.347-0.892 0.121-0.145 0.441-0.388 0.507-0.388 0.030 0 0.154 0.089 0.279 0.196zM3.618 12.723c0 0.018 0.006 0.089 0.015 0.157l0.015 0.127h-0.104c-0.074 0-0.116-0.018-0.148-0.065-0.065-0.092-0.059-0.133 0.024-0.216 0.071-0.071 0.193-0.074 0.199-0.003zM0.782 13.114c0.027 0.024 0.047 0.077 0.047 0.119 0 0.077-0.095 0.19-0.16 0.19-0.039 0-0.107-0.199-0.107-0.308 0-0.062 0.157-0.062 0.219 0zM2.975 14.418c0.030 0.080 0.021 0.216-0.024 0.323-0.050 0.119-0.068 0.124-0.124 0.053-0.050-0.071-0.086-0.030-0.041 0.047 0.047 0.092-0.006 0.166-0.169 0.231-0.145 0.053-0.376 0.068-0.519 0.030-0.071-0.018-0.077-0.033-0.062-0.121 0.018-0.119-0.039-0.175-0.068-0.062-0.009 0.041-0.030 0.074-0.044 0.074-0.050 0-0.181-0.21-0.196-0.317l-0.015-0.113 0.293 0.009c0.305 0.012 0.536-0.030 0.785-0.139 0.16-0.071 0.163-0.071 0.184-0.015z"></path>
<path d="M2.504 11.917c-0.16 0.092-0.181 0.276-0.047 0.412 0.11 0.11 0.234 0.113 0.356 0.009 0.092-0.077 0.121-0.201 0.074-0.323-0.041-0.107-0.264-0.166-0.382-0.098zM2.756 12.030c0.113 0.113 0.036 0.296-0.124 0.296-0.071 0-0.172-0.104-0.172-0.178 0-0.077 0.101-0.178 0.178-0.178 0.033 0 0.086 0.027 0.119 0.059z"></path>
<path d="M2.732 13.437c-0.113 0.050-0.166 0.166-0.139 0.302 0.030 0.16 0.222 0.246 0.376 0.169 0.204-0.104 0.193-0.385-0.021-0.474-0.119-0.047-0.095-0.050-0.216 0.003zM2.984 13.567c0.053 0.071 0.044 0.175-0.021 0.24-0.074 0.074-0.121 0.074-0.219-0.003s-0.098-0.157-0.003-0.252c0.080-0.080 0.175-0.074 0.243 0.015z"></path>
<path d="M1.156 12.142c-0.119 0.121-0.121 0.246-0.003 0.364 0.101 0.098 0.219 0.113 0.329 0.036 0.104-0.068 0.119-0.098 0.119-0.219 0-0.142-0.083-0.234-0.234-0.255-0.104-0.015-0.13-0.006-0.21 0.074zM1.446 12.196c0.036 0.024 0.065 0.077 0.065 0.119 0 0.086-0.095 0.19-0.178 0.19-0.074 0-0.178-0.101-0.178-0.172 0-0.065 0.030-0.107 0.104-0.148 0.080-0.044 0.11-0.044 0.187 0.012z"></path>
<path d="M1.496 13.597c-0.116 0.050-0.166 0.136-0.157 0.27 0.027 0.353 0.527 0.311 0.527-0.044 0-0.151-0.222-0.287-0.37-0.225zM1.704 13.733c0.127 0.124 0.068 0.281-0.104 0.281-0.166 0-0.237-0.178-0.119-0.296 0.077-0.077 0.136-0.074 0.222 0.015z"></path>
<path d="M4.281 21.354c-0.216 0.027-0.693 0.139-0.886 0.207-0.708 0.255-1.28 0.699-1.748 1.36-0.356 0.501-0.533 0.892-0.643 1.419-0.053 0.258-0.059 0.367-0.047 0.815 0.027 0.853 0.193 1.401 0.631 2.062 0.154 0.231 0.527 0.619 0.812 0.841 0.13 0.104 0.237 0.196 0.237 0.204s-0.083 0.095-0.184 0.187c-0.175 0.157-0.184 0.169-0.136 0.216 0.074 0.077 0.178 0.036 0.364-0.145l0.163-0.16 0.154 0.083c0.184 0.101 0.566 0.243 0.788 0.296 0.178 0.041 0.187 0.062 0.107 0.361-0.062 0.243-0.047 0.335 0.047 0.335 0.068 0 0.080-0.018 0.124-0.207 0.027-0.116 0.056-0.255 0.065-0.314l0.018-0.104 0.216 0.027c0.116 0.012 0.317 0.021 0.441 0.015l0.231-0.009 0.033 0.163c0.062 0.314 0.086 0.382 0.145 0.4 0.133 0.041 0.154-0.086 0.062-0.403l-0.053-0.193 0.252-0.053c0.296-0.059 0.53-0.136 0.83-0.273l0.216-0.098 0.163 0.13c0.32 0.261 0.554 0.344 0.984 0.341h0.305l0.107 0.231c0.347 0.761 0.459 1.396 0.279 1.588-0.039 0.041-0.104 0.077-0.148 0.083-0.056 0.006-0.080 0.030-0.086 0.080-0.021 0.139 0.175 0.166 0.32 0.044 0.317-0.27 0.273-0.824-0.148-1.793-0.065-0.151-0.119-0.284-0.119-0.296 0-0.015 0.062-0.050 0.139-0.086 0.501-0.222 0.945-0.856 1.031-1.476 0.012-0.083 0.030-0.154 0.039-0.154 0.012 0 0.16 0.021 0.332 0.044 0.566 0.077 1.141 0.047 1.419-0.077 0.329-0.145 0.504-0.51 0.296-0.619-0.104-0.056-0.154-0.015-0.136 0.107 0.047 0.29-0.281 0.424-1.037 0.427-0.29 0-0.664-0.033-0.856-0.074-0.047-0.012-0.068-0.044-0.083-0.139-0.056-0.347-0.379-0.779-0.726-0.966l-0.157-0.089-0.006-0.607-0.003-0.607 0.228-0.012c0.124-0.009 0.249-0.030 0.273-0.053 0.13-0.107-0.027-0.199-0.255-0.148-0.219 0.044-0.32 0.039-0.32-0.024 0-0.041-0.19-0.61-0.249-0.75-0.015-0.036 0.018-0.065 0.136-0.127 0.261-0.133 0.35-0.204 0.35-0.279 0-0.053-0.018-0.065-0.086-0.065-0.044 0-0.116 0.024-0.154 0.056-0.080 0.062-0.308 0.181-0.347 0.181-0.015 0-0.044-0.036-0.068-0.080-0.071-0.133-0.329-0.468-0.513-0.664l-0.175-0.184 0.077-0.154c0.107-0.216 0.127-0.35 0.065-0.4-0.077-0.062-0.139-0.003-0.21 0.204-0.036 0.101-0.068 0.19-0.074 0.196-0.009 0.006-0.127-0.065-0.267-0.16-0.507-0.338-1.016-0.551-1.532-0.64-0.225-0.041-0.797-0.053-1.028-0.024zM5.378 21.627c0.332 0.071 0.957 0.296 1.049 0.376 0.006 0.006-0.027 0.053-0.071 0.107-0.113 0.133-0.163 0.264-0.163 0.421 0 0.169 0.033 0.252 0.151 0.385 0.261 0.299 0.693 0.299 0.939 0l0.095-0.116 0.083 0.104c0.044 0.056 0.136 0.19 0.204 0.299 0.593 0.948 0.723 1.935 0.388 2.954-0.116 0.361-0.388 0.924-0.444 0.924-0.018 0-0.104-0.059-0.196-0.127-0.32-0.246-1.307-0.969-2.436-1.79-0.447-0.326-0.96-0.696-1.141-0.827-0.178-0.13-0.418-0.299-0.533-0.376-0.364-0.243-0.382-0.264-0.456-0.649-0.036-0.184-0.107-0.501-0.157-0.702l-0.092-0.37 0.086-0.068c0.104-0.083 0.524-0.302 0.753-0.388 0.222-0.086 0.584-0.181 0.806-0.213 0.267-0.039 0.824-0.009 1.135 0.056zM6.972 22.382c0.136 0.119 0.228 0.219 0.228 0.255 0 0.089-0.142 0.234-0.267 0.27-0.166 0.050-0.305 0.012-0.412-0.107-0.16-0.184-0.148-0.441 0.030-0.593 0.11-0.089 0.11-0.089 0.421 0.175zM2.498 22.584c0.059 0.237 0.258 1.037 0.258 1.046 0 0.003-0.124 0.015-0.273 0.027-0.151 0.009-0.447 0.039-0.661 0.062-0.21 0.021-0.388 0.036-0.394 0.030-0.018-0.018 0.136-0.338 0.24-0.504 0.219-0.35 0.702-0.898 0.759-0.862 0.012 0.009 0.044 0.101 0.071 0.201zM2.945 23.887c0.050 0.036 0.204 0.154 0.344 0.261 0.139 0.11 0.59 0.441 1.001 0.744 0.412 0.299 0.919 0.67 1.126 0.821s0.767 0.557 1.241 0.901l0.868 0.625-0.113 0.121c-0.317 0.35-0.812 0.732-1.197 0.924-0.791 0.397-1.754 0.444-2.714 0.127l-0.184-0.062 0.053-0.077c0.196-0.281 0.154-0.619-0.104-0.833-0.314-0.258-0.732-0.172-0.957 0.199-0.027 0.044-0.050 0.030-0.178-0.113-0.681-0.75-1.010-1.609-0.969-2.533 0.018-0.347 0.121-0.957 0.178-1.010 0.027-0.027 0.519-0.095 0.954-0.133 0.21-0.018 0.391-0.039 0.4-0.047 0.024-0.024 0.157 0.024 0.249 0.086zM8.536 25.985c0.243 0.127 0.495 0.468 0.548 0.756 0.018 0.104 0.015 0.113-0.036 0.092-0.030-0.015-0.107-0.030-0.166-0.039-0.101-0.015-0.113-0.009-0.113 0.044 0 0.077 0.095 0.142 0.246 0.169l0.11 0.021v0.169c-0.003 0.459-0.415 1.079-0.874 1.31l-0.178 0.089-0.059-0.080c-0.033-0.044-0.101-0.13-0.154-0.187-0.089-0.098-0.098-0.104-0.142-0.059-0.056 0.056-0.033 0.13 0.080 0.255 0.086 0.095 0.044 0.127-0.163 0.127-0.225 0-0.441-0.056-0.637-0.163-0.142-0.077-0.296-0.21-0.27-0.231 0.006-0.006 0.101-0.074 0.21-0.151 0.542-0.379 1.164-1.271 1.357-1.938 0.039-0.133 0.083-0.243 0.095-0.243 0.015 0 0.080 0.027 0.145 0.059zM3.001 27.538c0.121 0.050 0.246 0.196 0.273 0.314 0.024 0.11-0.027 0.27-0.107 0.344-0.056 0.050-0.062 0.050-0.199-0.015-0.077-0.039-0.222-0.127-0.323-0.199-0.196-0.139-0.201-0.157-0.095-0.311 0.059-0.083 0.213-0.172 0.302-0.175 0.030 0 0.095 0.018 0.148 0.041z"></path>
<path d="M3.985 22.323c-0.424 0.187-0.504 0.738-0.151 1.046 0.453 0.4 1.161-0.068 0.996-0.658-0.039-0.142-0.231-0.347-0.373-0.4-0.107-0.041-0.367-0.036-0.471 0.012zM4.459 22.575c0.273 0.154 0.219 0.578-0.089 0.702-0.27 0.107-0.548-0.089-0.548-0.388 0-0.326 0.332-0.489 0.637-0.314z"></path>
<path d="M6.933 24.391c-0.287 0.083-0.498 0.373-0.462 0.64 0.039 0.276 0.225 0.504 0.477 0.572 0.228 0.065 0.575-0.092 0.687-0.311 0.139-0.267 0.101-0.524-0.107-0.732-0.184-0.187-0.361-0.237-0.596-0.169zM7.271 24.634c0.216 0.089 0.296 0.361 0.166 0.572-0.16 0.264-0.557 0.249-0.696-0.021-0.053-0.104-0.059-0.305-0.009-0.394 0.092-0.175 0.329-0.246 0.539-0.157z"></path>
<path d="M2.246 24.741c-0.136 0.041-0.311 0.199-0.361 0.329-0.062 0.157-0.065 0.394-0.006 0.536 0.059 0.136 0.225 0.276 0.391 0.32 0.409 0.116 0.791-0.172 0.785-0.59-0.003-0.204-0.030-0.284-0.133-0.409-0.148-0.178-0.441-0.258-0.676-0.187zM2.601 24.96c0.154 0.080 0.222 0.184 0.234 0.35 0.015 0.19-0.053 0.317-0.207 0.388-0.311 0.148-0.613-0.065-0.572-0.403 0.033-0.284 0.314-0.456 0.545-0.335z"></path>
<path d="M5.111 26.785c-0.347 0.178-0.459 0.539-0.273 0.874 0.246 0.436 0.889 0.394 1.096-0.071 0.124-0.279 0.039-0.581-0.21-0.756-0.166-0.119-0.436-0.139-0.613-0.047zM5.585 27.010c0.207 0.095 0.261 0.382 0.11 0.572-0.261 0.326-0.717 0.166-0.717-0.249 0-0.323 0.281-0.471 0.607-0.323z"></path>
<path d="M52.255 23.476c-0.083 0.062-0.050 0.154 0.056 0.154 0.127 0 0.213 0.059 0.249 0.169 0.039 0.119 0.086 0.572 0.074 0.693-0.006 0.047-0.024 0.222-0.044 0.385l-0.033 0.299-0.166 0.039c-0.311 0.068-0.61 0.293-0.75 0.566-0.056 0.113-0.068 0.121-0.151 0.104-0.050-0.009-0.267-0.018-0.48-0.018h-0.388l-0.009-0.166c-0.012-0.246-0.083-0.35-0.151-0.222-0.018 0.033-0.021 0.113-0.006 0.204 0.024 0.16 0 0.243-0.077 0.243-0.027 0-0.166 0.041-0.311 0.092s-0.27 0.086-0.273 0.080c-0.003-0.006-0.044-0.077-0.092-0.157-0.11-0.196-0.16-0.252-0.21-0.231-0.062 0.024-0.050 0.092 0.047 0.252 0.050 0.077 0.089 0.166 0.089 0.196s-0.080 0.098-0.201 0.175c-0.11 0.068-0.276 0.193-0.37 0.279l-0.172 0.154-0.142-0.080c-0.16-0.086-0.284-0.101-0.311-0.033-0.024 0.062 0.047 0.119 0.201 0.163 0.074 0.021 0.136 0.047 0.136 0.062 0 0.012-0.065 0.11-0.145 0.216-0.19 0.258-0.403 0.69-0.483 0.981-0.053 0.196-0.065 0.323-0.065 0.726-0.003 0.51 0.024 0.684 0.16 1.079 0.29 0.841 1.138 1.612 2.050 1.861 0.21 0.059 0.317 0.068 0.75 0.068 0.569 0 0.847-0.053 1.25-0.237 0.409-0.19 0.892-0.581 1.144-0.927l0.095-0.13 0.133 0.151c0.074 0.083 0.151 0.151 0.172 0.151 0.080 0 0.033-0.16-0.089-0.305l-0.121-0.145 0.107-0.213c0.059-0.119 0.136-0.308 0.172-0.427 0.074-0.237 0.080-0.24 0.311-0.169 0.187 0.056 0.246 0.056 0.27-0.003 0.027-0.074-0.059-0.121-0.29-0.163-0.151-0.027-0.201-0.047-0.193-0.077 0.009-0.021 0.024-0.178 0.036-0.35l0.021-0.311 0.107-0.030c0.059-0.015 0.133-0.030 0.169-0.030 0.092 0 0.172-0.071 0.148-0.133-0.015-0.044-0.039-0.050-0.16-0.030-0.305 0.050-0.311 0.047-0.341-0.119-0.036-0.219-0.136-0.542-0.216-0.702l-0.071-0.142 0.148-0.184c0.187-0.234 0.249-0.412 0.252-0.726v-0.246l0.237-0.101c0.504-0.216 0.984-0.299 1.17-0.204 0.068 0.036 0.107 0.077 0.116 0.127 0.021 0.154 0.151 0.139 0.151-0.018 0-0.113-0.059-0.187-0.213-0.267-0.204-0.107-0.652-0.036-1.239 0.199-0.154 0.062-0.281 0.11-0.281 0.107-0.101-0.281-0.347-0.584-0.607-0.747-0.166-0.107-0.486-0.222-0.613-0.222-0.053 0-0.098-0.012-0.098-0.024 0-0.015 0.021-0.157 0.044-0.32 0.098-0.655 0.024-1.126-0.204-1.301-0.121-0.092-0.228-0.116-0.296-0.065zM52.489 25.443c-0.036 0.136-0.033 0.169 0.021 0.181 0.053 0.009 0.142-0.127 0.142-0.219 0-0.041 0.027-0.047 0.175-0.036 0.222 0.015 0.498 0.148 0.705 0.341 0.163 0.151 0.335 0.403 0.335 0.486 0 0.030-0.056 0.092-0.124 0.136-0.071 0.047-0.127 0.104-0.127 0.127 0 0.068 0.095 0.068 0.181 0.003 0.044-0.033 0.089-0.053 0.104-0.044 0.047 0.030 0.027 0.332-0.033 0.495-0.033 0.089-0.104 0.21-0.157 0.273l-0.095 0.11-0.157-0.207c-0.344-0.465-1.025-0.957-1.508-1.090-0.104-0.027-0.187-0.059-0.187-0.071 0-0.009 0.039-0.080 0.086-0.154 0.098-0.154 0.279-0.29 0.477-0.359 0.181-0.065 0.187-0.062 0.163 0.030zM51.573 26.086c0.27 0.059 0.501 0.142 0.779 0.284 0.37 0.187 0.361 0.154 0.136 0.444-0.11 0.139-0.252 0.326-0.32 0.415s-0.237 0.311-0.376 0.492c-0.139 0.178-0.284 0.37-0.326 0.427-0.071 0.098-0.119 0.16-0.61 0.8-0.456 0.599-0.622 0.815-0.759 1.010-0.074 0.107-0.157 0.21-0.181 0.231-0.024 0.018-0.216 0.068-0.427 0.107-0.207 0.039-0.462 0.089-0.563 0.113-0.178 0.041-0.184 0.041-0.24-0.021-0.065-0.071-0.219-0.394-0.308-0.64-0.204-0.584-0.199-1.256 0.015-1.852 0.039-0.104 0.196-0.456 0.216-0.486 0.006-0.006 0.059 0.030 0.121 0.080 0.29 0.228 0.676 0.101 0.782-0.261 0.047-0.157-0.003-0.332-0.139-0.468-0.056-0.056-0.101-0.104-0.101-0.11s0.101-0.071 0.222-0.145c0.693-0.436 1.369-0.572 2.077-0.421zM53.061 26.898c0.681 0.773 0.898 1.479 0.744 2.421-0.033 0.201-0.175 0.667-0.201 0.667-0.009 0-0.044-0.021-0.077-0.047-0.344-0.261-0.853 0.095-0.747 0.521 0.027 0.113 0.083 0.19 0.204 0.284l0.080 0.062-0.11 0.104c-0.13 0.127-0.498 0.373-0.702 0.477-0.080 0.039-0.261 0.11-0.4 0.157-0.237 0.077-0.284 0.083-0.756 0.086-0.519 0-0.88-0.056-0.975-0.151-0.047-0.044-0.065-0.178-0.107-0.75l-0.033-0.424 0.121-0.154c0.317-0.4 0.984-1.265 1.556-2.018 0.16-0.213 0.353-0.465 0.43-0.563 0.074-0.098 0.261-0.341 0.412-0.542 0.151-0.199 0.293-0.361 0.314-0.361 0.024 0 0.133 0.104 0.246 0.231zM49.324 26.975c0.062 0.133 0.033 0.29-0.071 0.373-0.151 0.119-0.296 0.113-0.444-0.012-0.071-0.062-0.077-0.080-0.047-0.142 0.018-0.039 0.101-0.145 0.187-0.24l0.154-0.169 0.086 0.047c0.047 0.024 0.11 0.089 0.136 0.142zM53.416 30.074c0.050 0.033 0.095 0.074 0.095 0.095 0 0.047-0.222 0.418-0.281 0.468-0.039 0.033-0.059 0.033-0.119 0-0.234-0.124-0.222-0.462 0.018-0.584 0.101-0.053 0.175-0.047 0.287 0.021zM49.87 30.681c0.012 0.163 0.030 0.394 0.041 0.513 0.012 0.139 0.009 0.213-0.009 0.213-0.056 0-0.347-0.157-0.51-0.276-0.175-0.127-0.578-0.521-0.554-0.542 0.024-0.024 0.892-0.213 0.954-0.21 0.053 0.006 0.062 0.033 0.077 0.302z"></path>
<path d="M50.818 26.468c-0.124 0.044-0.267 0.213-0.299 0.359-0.047 0.216 0.077 0.465 0.284 0.557 0.222 0.098 0.45 0.036 0.607-0.166 0.095-0.121 0.11-0.382 0.030-0.51-0.133-0.216-0.406-0.32-0.622-0.24zM51.239 26.726c0.151 0.169 0.086 0.444-0.124 0.507-0.225 0.068-0.418-0.056-0.418-0.267 0-0.065 0.015-0.151 0.033-0.19 0.086-0.19 0.361-0.216 0.51-0.050z"></path>
<path d="M49.079 28.711c-0.083 0.033-0.243 0.222-0.267 0.314-0.030 0.119 0.006 0.338 0.068 0.424 0.033 0.041 0.104 0.11 0.16 0.145 0.083 0.059 0.13 0.068 0.273 0.059 0.19-0.015 0.29-0.074 0.4-0.234 0.059-0.083 0.068-0.13 0.059-0.273-0.015-0.199-0.080-0.299-0.249-0.397-0.119-0.068-0.326-0.089-0.444-0.039zM49.476 28.907c0.089 0.059 0.157 0.222 0.136 0.329-0.033 0.169-0.142 0.246-0.347 0.246-0.116 0-0.145-0.015-0.213-0.095-0.068-0.083-0.080-0.116-0.068-0.237 0.027-0.279 0.261-0.391 0.492-0.243z"></path>
<path d="M52.634 27.893c-0.119 0.053-0.246 0.219-0.27 0.356-0.027 0.169 0.015 0.305 0.133 0.43 0.204 0.216 0.492 0.219 0.696 0.009 0.24-0.249 0.175-0.622-0.136-0.773-0.148-0.071-0.29-0.077-0.424-0.021zM53.037 28.086c0.104 0.074 0.154 0.234 0.116 0.373-0.027 0.089-0.056 0.119-0.16 0.166-0.16 0.071-0.287 0.050-0.385-0.068-0.124-0.148-0.080-0.412 0.080-0.489 0.154-0.077 0.219-0.071 0.35 0.018z"></path>
<path d="M51.031 30.166c-0.124 0.036-0.296 0.24-0.32 0.382-0.041 0.249 0.119 0.495 0.37 0.563 0.166 0.044 0.317 0.009 0.444-0.11 0.267-0.237 0.199-0.664-0.13-0.812-0.133-0.059-0.219-0.065-0.364-0.024zM51.446 30.43c0.121 0.136 0.113 0.299-0.024 0.436-0.095 0.095-0.116 0.104-0.228 0.089-0.163-0.021-0.27-0.107-0.302-0.24-0.039-0.145 0.003-0.252 0.13-0.338 0.142-0.095 0.308-0.074 0.424 0.053z"></path>
<path d="M21.819 27.156c-0.012 0.024-0.003 0.083 0.012 0.133 0.018 0.047 0.024 0.092 0.012 0.101-0.012 0.006-0.142 0.012-0.287 0.012-0.584 0.003-1.034 0.196-1.44 0.619-0.21 0.219-0.323 0.388-0.421 0.631-0.133 0.338-0.178 0.818-0.107 1.203 0.047 0.279 0.258 0.676 0.486 0.924 0.376 0.409 0.717 0.578 1.357 0.673 0.119 0.018 0.133 0.050 0.074 0.178-0.024 0.050-0.024 0.086-0.003 0.107 0.039 0.039 0.116-0.050 0.148-0.181 0.027-0.101 0.033-0.104 0.213-0.124 0.101-0.012 0.231-0.036 0.287-0.053 0.139-0.047 0.172-0.027 0.213 0.116 0.041 0.133 0.083 0.175 0.13 0.127 0.024-0.024 0.015-0.074-0.030-0.175-0.047-0.107-0.053-0.148-0.027-0.166 0.021-0.012 0.113-0.068 0.207-0.124l0.175-0.104 0.101 0.104c0.053 0.056 0.113 0.104 0.127 0.104 0.071 0 0.056-0.065-0.039-0.172l-0.104-0.116 0.13-0.127c0.074-0.074 0.175-0.199 0.228-0.281l0.095-0.151 0.163 0.012c0.201 0.015 0.373-0.027 0.521-0.127 0.136-0.095 0.166-0.086 0.439 0.13 0.338 0.27 0.439 0.427 0.356 0.569-0.059 0.101-0.036 0.136 0.065 0.092 0.11-0.050 0.104-0.252-0.012-0.415-0.095-0.127-0.397-0.391-0.56-0.489l-0.095-0.056 0.056-0.095c0.151-0.243 0.178-0.607 0.068-0.904l-0.050-0.133 0.261-0.127c0.474-0.24 0.72-0.554 0.557-0.717-0.036-0.036-0.077-0.056-0.092-0.047-0.039 0.024-0.039 0.104 0 0.104 0.018 0 0.030 0.036 0.030 0.080 0 0.104-0.199 0.293-0.453 0.436-0.326 0.184-0.35 0.187-0.507 0.065-0.16-0.121-0.296-0.166-0.513-0.166-0.133 0-0.157-0.009-0.175-0.068-0.009-0.036-0.080-0.157-0.154-0.267l-0.133-0.204 0.113-0.095c0.065-0.056 0.104-0.113 0.092-0.133-0.033-0.050-0.059-0.041-0.178 0.053l-0.11 0.089-0.187-0.151-0.184-0.151 0.068-0.136c0.080-0.16 0.080-0.181 0.027-0.181-0.024 0-0.077 0.059-0.119 0.13l-0.077 0.133-0.16-0.074c-0.089-0.039-0.228-0.089-0.311-0.11-0.133-0.030-0.151-0.044-0.151-0.11 0-0.116-0.033-0.201-0.077-0.219-0.024-0.009-0.050 0.003-0.059 0.027zM21.481 27.612c0 0.059 0.027 0.151 0.059 0.204 0.148 0.24 0.519 0.19 0.593-0.083 0.018-0.065 0.044-0.119 0.059-0.119 0.056 0 0.311 0.127 0.474 0.24 0.308 0.204 0.542 0.483 0.667 0.791 0.080 0.199 0.163 0.575 0.163 0.747v0.121l-0.124-0.018c-0.19-0.024-1.153-0.095-2.039-0.148-0.433-0.027-0.827-0.053-0.874-0.062-0.065-0.009-0.169-0.089-0.379-0.302l-0.287-0.287 0.068-0.127c0.305-0.569 0.794-0.927 1.416-1.037 0.201-0.036 0.204-0.036 0.204 0.080zM22.009 27.561c0.056 0.047 0.041 0.139-0.039 0.216-0.172 0.175-0.441-0.006-0.353-0.237 0.018-0.041 0.047-0.047 0.187-0.030 0.092 0.012 0.184 0.036 0.204 0.050zM23.947 28.827c0.16 0.101 0.199 0.151 0.119 0.151-0.065 0-0.142 0.074-0.101 0.101 0.015 0.009 0.068 0.003 0.121-0.012 0.080-0.021 0.098-0.018 0.136 0.039 0.124 0.193 0.127 0.557 0.006 0.797-0.068 0.133-0.086 0.139-0.264 0.095-0.065-0.015-0.083-0.009-0.083 0.030 0 0.024 0.033 0.053 0.074 0.065 0.089 0.021 0.092 0.047 0.024 0.107-0.095 0.077-0.216 0.113-0.385 0.113-0.133 0-0.16-0.009-0.145-0.044 0.119-0.308 0.148-0.489 0.148-0.874 0-0.299-0.012-0.433-0.050-0.527l-0.047-0.124h0.154c0.121 0 0.187 0.018 0.293 0.086zM20.228 29.265c0.030 0.027-0.018 0.077-0.228 0.243-0.148 0.116-0.281 0.21-0.299 0.21-0.044 0-0.018-0.693 0.030-0.812l0.036-0.089 0.21 0.207c0.116 0.113 0.228 0.219 0.252 0.24zM21.458 29.452c0.462 0.033 1.102 0.080 1.428 0.104 0.323 0.021 0.593 0.047 0.601 0.053 0.021 0.021-0.077 0.4-0.148 0.569-0.136 0.326-0.436 0.679-0.723 0.85-0.169 0.098-0.575 0.261-0.655 0.261-0.041 0-0.062-0.033-0.083-0.124-0.071-0.341-0.575-0.341-0.646 0-0.015 0.068-0.041 0.124-0.059 0.124s-0.124-0.033-0.234-0.074c-0.548-0.199-0.969-0.613-1.147-1.132l-0.068-0.207 0.119-0.11c0.068-0.059 0.213-0.175 0.326-0.258 0.187-0.139 0.21-0.148 0.326-0.133 0.068 0.009 0.501 0.044 0.963 0.077zM21.704 31.096c0.169 0.166 0.050 0.279-0.243 0.237-0.11-0.015-0.127-0.027-0.127-0.092 0-0.095 0.124-0.219 0.222-0.219 0.041 0 0.11 0.033 0.148 0.074z"></path>
<path d="M20.548 28.273c-0.225 0.175-0.184 0.48 0.077 0.587 0.21 0.089 0.412-0.047 0.436-0.293 0.012-0.139 0.006-0.157-0.092-0.255-0.127-0.127-0.29-0.142-0.421-0.039zM20.862 28.376c0.119 0.071 0.121 0.243 0.009 0.332-0.044 0.036-0.104 0.062-0.136 0.062-0.071 0-0.231-0.154-0.231-0.222 0-0.065 0.16-0.222 0.222-0.222 0.027 0 0.089 0.024 0.136 0.050z"></path>
<path d="M22.447 28.43c-0.163 0.151-0.169 0.373-0.012 0.504 0.213 0.181 0.516 0.053 0.548-0.234 0.015-0.124 0.009-0.142-0.089-0.24-0.089-0.089-0.124-0.104-0.237-0.104-0.098 0-0.151 0.018-0.21 0.074zM22.809 28.533c0.113 0.104 0.071 0.302-0.071 0.356-0.107 0.041-0.201 0.009-0.258-0.089-0.068-0.113-0.062-0.169 0.024-0.252 0.089-0.092 0.216-0.095 0.305-0.015z"></path>
<path d="M20.477 29.867c-0.086 0.039-0.139 0.104-0.184 0.231-0.027 0.080-0.021 0.116 0.030 0.225 0.092 0.187 0.264 0.246 0.447 0.151 0.121-0.062 0.178-0.157 0.178-0.302 0-0.237-0.249-0.397-0.471-0.305zM20.753 30.018c0.053 0.041 0.077 0.089 0.077 0.154 0 0.113-0.021 0.148-0.11 0.196-0.154 0.080-0.305-0.012-0.305-0.184 0-0.204 0.178-0.29 0.338-0.166z"></path>
<path d="M22.317 30.012c-0.166 0.166-0.136 0.415 0.059 0.536 0.124 0.074 0.219 0.074 0.344 0 0.119-0.071 0.163-0.184 0.142-0.341-0.033-0.264-0.359-0.382-0.545-0.196zM22.693 30.107c0.148 0.139-0.006 0.433-0.193 0.364-0.11-0.039-0.201-0.166-0.175-0.246 0.053-0.169 0.246-0.231 0.367-0.119z"></path>
</svg>
